<svg width="21" height="21" viewBox="0 0 21 21" fill="none" xmlns="http://www.w3.org/2000/svg">
<g clip-path="url(#clip0_1003_23)">
<path d="M10.9807 15.021C13.7421 15.021 15.9807 12.7825 15.9807 10.021C15.9807 7.25962 13.7421 5.02105 10.9807 5.02105C8.21929 5.02105 5.98071 7.25962 5.98071 10.021C5.98071 12.7825 8.21929 15.021 10.9807 15.021Z" fill="white"/>
<path d="M10.981 4.82325C10.9809 4.82325 10.9808 4.82325 10.9807 4.82325C10.0677 4.82217 9.17058 5.06178 8.37968 5.51793C7.58872 5.97412 6.932 6.63077 6.47572 7.42169C6.01944 8.2126 5.77973 9.10983 5.78076 10.0229C5.78101 10.2477 5.79585 10.4715 5.82492 10.6929L2.5526 5.0251C3.40947 3.57944 4.62419 2.37789 6.08053 1.53672C7.5701 0.676368 9.25992 0.223355 10.9801 0.223235C12.7003 0.223115 14.3902 0.675893 15.8798 1.53604C17.2684 2.33778 18.4373 3.4671 19.286 4.82325L10.981 4.82325Z" fill="url(#paint0_linear_1003_23)" stroke="#1C3158" stroke-width="0.4"/>
<path d="M10.9808 13.9816C13.1669 13.9816 14.9391 12.2094 14.9391 10.0233C14.9391 7.83713 13.1669 6.06492 10.9808 6.06492C8.79467 6.06492 7.02246 7.83713 7.02246 10.0233C7.02246 12.2094 8.79467 13.9816 10.9808 13.9816Z" fill="#1C3158"/>
<path d="M13.5807 5.52131C13.3859 5.40914 13.1846 5.3101 12.9783 5.22455H19.5229C20.3464 6.68945 20.7796 8.3422 20.7799 10.024C20.7802 11.7442 20.3276 13.4341 19.4677 14.9239C18.6077 16.4137 17.3706 17.6508 15.8809 18.5108C14.4923 19.3124 12.9298 19.7601 11.331 19.8171L15.4835 12.6247C15.4836 12.6246 15.4836 12.6245 15.4837 12.6245C15.9411 11.8343 16.1822 10.9376 16.1826 10.0245C16.183 9.11145 15.9427 8.21438 15.4859 7.42377C15.0291 6.63316 14.3719 5.97696 13.5807 5.52131Z" fill="url(#paint1_linear_1003_23)" stroke="#1C3158" stroke-width="0.4"/>
<g filter="url(#filter0_d_1003_23)">
<path d="M6.651 12.5245L2.32158 5.02576C1.44371 6.54576 0.981511 8.27009 0.981445 10.0254C0.98138 11.7807 1.44345 13.505 2.32121 15.0251C3.19896 16.5452 4.46145 17.8074 5.98173 18.6847C7.50201 19.5621 9.2265 20.0238 10.9818 20.0233L15.3112 12.5245L15.3084 12.5216C14.8709 13.2828 14.2405 13.9151 13.4806 14.355C12.7208 14.7948 11.8585 15.0265 10.9805 15.0268C10.1026 15.0271 9.24012 14.796 8.48 14.3566C7.71989 13.9173 7.08902 13.2854 6.651 12.5245V12.5245Z" fill="url(#paint2_linear_1003_23)"/>
<path d="M2.32516 5.43196C1.57504 6.84502 1.18151 8.42203 1.18145 10.0254C1.18138 11.7456 1.63421 13.4354 2.4944 14.9251C3.3546 16.4148 4.59183 17.6517 6.0817 18.5115C7.53834 19.3522 9.18627 19.8034 10.8667 19.8226L14.139 14.1548C13.9617 14.2907 13.7754 14.4154 13.5808 14.5281C12.7906 14.9855 11.8937 15.2265 10.9806 15.2268C10.0675 15.2271 9.17048 14.9867 8.37993 14.5298C7.58944 14.0729 6.93335 13.4158 6.47779 12.6245L2.32516 5.43196ZM2.32516 5.43196L6.47767 12.6243L2.32516 5.43196Z" stroke="#1C3158" stroke-width="0.4"/>
</g>
</g>
<defs>
<filter id="filter0_d_1003_23" x="-3.01855" y="5.02576" width="22.3298" height="22.9975" filterUnits="userSpaceOnUse" color-interpolation-filters="sRGB">
<feFlood flood-opacity="0" result="BackgroundImageFix"/>
<feColorMatrix in="SourceAlpha" type="matrix" values="0 0 0 0 0 0 0 0 0 0 0 0 0 0 0 0 0 0 127 0" result="hardAlpha"/>
<feOffset dy="4"/>
<feGaussianBlur stdDeviation="2"/>
<feComposite in2="hardAlpha" operator="out"/>
<feColorMatrix type="matrix" values="0 0 0 0 0 0 0 0 0 0 0 0 0 0 0 0 0 0 0.25 0"/>
<feBlend mode="normal" in2="BackgroundImageFix" result="effect1_dropShadow_1003_23"/>
<feBlend mode="normal" in="SourceGraphic" in2="effect1_dropShadow_1003_23" result="shape"/>
</filter>
<linearGradient id="paint0_linear_1003_23" x1="2.32129" y1="6.27325" x2="19.6396" y2="6.27325" gradientUnits="userSpaceOnUse">
<stop stop-color="white"/>
<stop offset="1" stop-color="white"/>
</linearGradient>
<linearGradient id="paint1_linear_1003_23" x1="9.61487" y1="19.8896" x2="18.274" y2="4.89147" gradientUnits="userSpaceOnUse">
<stop stop-color="white"/>
<stop offset="1" stop-color="white"/>
</linearGradient>
<linearGradient id="paint2_linear_1003_23" x1="12.0633" y1="19.3989" x2="3.40412" y2="4.40076" gradientUnits="userSpaceOnUse">
<stop stop-color="white"/>
<stop offset="1" stop-color="white"/>
</linearGradient>
<clipPath id="clip0_1003_23">
<rect width="20" height="20" fill="white" transform="translate(0.980713 0.0232544)"/>
</clipPath>
</defs>
</svg>
