<svg width="22" height="29" viewBox="0 0 22 29" fill="none" xmlns="http://www.w3.org/2000/svg">
<path d="M19.9375 28.875H2.0625C0.923313 28.875 0 27.9517 0 26.8125L0 2.0625C0 0.923313 0.923313 0 2.0625 0L15.125 0L22 6.875V26.8125C22 27.9517 21.0767 28.875 19.9375 28.875Z" fill="white"/>
<path d="M21.998 6.87524H15.123V0.000244141L21.998 6.87524Z" fill="#D176CB"/>
<path d="M15.123 6.87512L21.998 13.7501V6.87512H15.123Z" fill="white"/>
<path d="M4.81396 13.75H17.189V15.125H4.81396V13.75ZM4.81396 16.5H17.189V17.875H4.81396V16.5ZM4.81396 19.25H17.189V20.625H4.81396V19.25ZM4.81396 22H11.689V23.375H4.81396V22Z" fill="#D176CB"/>
</svg>
