<svg width="24" height="25" viewBox="0 0 24 25" fill="none" xmlns="http://www.w3.org/2000/svg">
<g clip-path="url(#clip0_361_22)">
<path d="M5.2662 9.78491C6.19879 6.95902 8.85445 4.92948 12 4.92948C13.6909 4.92948 15.2182 5.52948 16.4182 6.51129L19.9091 3.02039C17.7818 1.16584 15.0545 0.0203857 12 0.0203857C7.27007 0.0203857 3.19775 2.71868 1.23999 6.67041L5.2662 9.78491Z" fill="#EA4335"/>
<path d="M16.0407 18.033C14.9509 18.7367 13.5661 19.1113 12 19.1113C8.86648 19.1113 6.21911 17.0973 5.27698 14.2883L1.23746 17.3554C3.19279 21.314 7.265 24.0204 12 24.0204C14.9328 24.0204 17.7353 22.9778 19.8342 21.02L16.0407 18.033Z" fill="#34A853"/>
<path d="M19.8342 21.02C22.0292 18.9725 23.4545 15.9241 23.4545 12.0204C23.4545 11.3113 23.3455 10.5477 23.1818 9.83857H12V14.4749H18.4364C18.1188 16.034 17.2663 17.2416 16.0407 18.033L19.8342 21.02Z" fill="#4A90E2"/>
<path d="M5.27698 14.2883C5.03833 13.5767 4.90909 12.8141 4.90909 12.0204C4.90909 11.2387 5.03444 10.4872 5.2662 9.78491L1.23999 6.67041C0.436587 8.28082 0 10.0958 0 12.0204C0 13.9399 0.444781 15.7506 1.23746 17.3554L5.27698 14.2883Z" fill="#FBBC05"/>
</g>
<defs>
<clipPath id="clip0_361_22">
<rect width="24" height="24" fill="white" transform="translate(0 0.0203857)"/>
</clipPath>
</defs>
</svg>
