<svg width="22" height="22" viewBox="0 0 22 22" fill="none" xmlns="http://www.w3.org/2000/svg">
<path fill-rule="evenodd" clip-rule="evenodd" d="M0 0V22H22V0H0ZM6.84282 18.277H3.5788V8.45699H6.84282V18.277ZM5.21081 7.11669H5.18924C4.09432 7.11669 3.38462 6.36235 3.38462 5.41949C3.38462 4.45594 4.11506 3.72298 5.23218 3.72298C6.34954 3.72298 7.03618 4.45594 7.05755 5.41949C7.05755 6.36235 6.34954 7.11669 5.21081 7.11669ZM18.6154 18.277H15.3505V13.0233C15.3505 11.7037 14.8788 10.803 13.6971 10.803C12.7947 10.803 12.2584 11.4094 12.0222 11.9969C11.9363 12.2068 11.9138 12.4985 11.9138 12.7927V18.2771H8.64832C8.64832 18.2771 8.69208 9.37829 8.64832 8.45704H11.9138V9.84855C12.3477 9.18096 13.122 8.2265 14.8563 8.2265C17.0049 8.2265 18.6154 9.62967 18.6154 12.6457V18.277Z" fill="white"/>
</svg>
