<svg width="30" height="25" viewBox="0 0 30 25" fill="none" xmlns="http://www.w3.org/2000/svg">
<path d="M28.7511 24.9505L19.6772 20.5884L19.6089 0.814571C19.6073 0.352963 20.0892 0.0487935 20.5052 0.248829L29.1076 4.38548C29.3242 4.48962 29.462 4.70874 29.462 4.94905V24.5035C29.4619 24.8689 29.0803 25.1088 28.7511 24.9505Z" fill="#2166CD" fill-opacity="0.56"/>
<path d="M19.677 20.5883L9.85645 15.8665L19.3108 0.300791C19.4778 0.0258181 19.8263 -0.0775684 20.1163 0.0618273L28.8389 4.25635C29.1723 4.41671 29.2944 4.82988 29.1017 5.14565L19.677 20.5883Z" fill="#2166CD" fill-opacity="0.65"/>
<path d="M19.6769 20.5883L9.85632 15.8665L0.854816 1.2084C0.604023 0.800022 1.0404 0.316479 1.47229 0.52415L9.85632 4.55577L19.6769 20.5883Z" fill="#2166CD" fill-opacity="0.73"/>
<path d="M9.14561 24.9503L0.281037 20.6876C0.109226 20.605 0 20.4312 0 20.2406V0.580043C0 0.226238 0.369601 -0.00621253 0.688519 0.147183L9.85652 4.55581V24.5033C9.85652 24.8687 9.47486 25.1087 9.14561 24.9503Z" fill="#2166CD"/>
</svg>
