<svg width="22" height="22" viewBox="0 0 22 22" fill="none" xmlns="http://www.w3.org/2000/svg">
<path d="M21.12 0H0.88C0.39325 0 0 0.39325 0 0.88V21.12C0 21.6068 0.39325 22 0.88 22H21.12C21.6068 22 22 21.6068 22 21.12V0.88C22 0.39325 21.6068 0 21.12 0ZM11.0302 11.1677L5.75025 15.5952C5.60725 15.7162 5.39 15.6145 5.39 15.4275V13.7032C5.39 13.64 5.42025 13.5767 5.46975 13.5355L8.48925 11L5.46975 8.4645C5.44447 8.44454 5.42413 8.41902 5.4103 8.38993C5.39647 8.36084 5.38953 8.32896 5.39 8.29675V6.5725C5.39 6.3855 5.60725 6.28375 5.75025 6.40475L11.0302 10.8295C11.1375 10.9175 11.1375 11.0797 11.0302 11.1677ZM16.61 15.4275C16.61 15.5485 16.5165 15.6475 16.4037 15.6475H11.3162C11.2035 15.6475 11.11 15.5485 11.11 15.4275V14.1075C11.11 13.9865 11.2035 13.8875 11.3162 13.8875H16.4037C16.5165 13.8875 16.61 13.9865 16.61 14.1075V15.4275Z" fill="white"/>
</svg>
