<svg width="30" height="25" viewBox="0 0 30 25" fill="none" xmlns="http://www.w3.org/2000/svg">
<path d="M29.3202 2.8852C28.8489 3.09793 28.3644 3.2775 27.8693 3.42332C28.4554 2.74857 28.9023 1.95466 29.1751 1.0859C29.2363 0.891181 29.1729 0.678032 29.0156 0.550644C28.8586 0.423196 28.6404 0.407929 28.4674 0.512237C27.416 1.14697 26.2816 1.60315 25.0921 1.86985C23.894 0.678211 22.2666 0 20.5843 0C17.0332 0 14.1441 2.94054 14.1441 6.55489C14.1441 6.83954 14.1618 7.12265 14.1968 7.40182C9.79022 7.00802 5.69346 4.80348 2.88026 1.29106C2.78 1.16588 2.62555 1.09837 2.46741 1.11131C2.3092 1.12389 2.167 1.21472 2.08708 1.35433C1.51649 2.35084 1.21485 3.49059 1.21485 4.65027C1.21485 6.22974 1.76885 7.72828 2.74754 8.89929C2.44995 8.79438 2.1612 8.66329 1.88557 8.50758C1.73762 8.42373 1.55704 8.42504 1.41002 8.5108C1.26295 8.59662 1.17073 8.75436 1.1668 8.92684C1.1661 8.95588 1.1661 8.98493 1.1661 9.01439C1.1661 11.372 2.41274 13.4946 4.31874 14.6514C4.15497 14.6348 3.99137 14.6106 3.82877 14.579C3.66114 14.5464 3.48881 14.6062 3.37579 14.7364C3.26258 14.8664 3.22508 15.0476 3.27729 15.2131C3.98276 17.455 5.79911 19.1039 7.99491 19.6067C6.1737 20.7677 4.09104 21.3759 1.90473 21.3759C1.44852 21.3759 0.989732 21.3486 0.540728 21.2945C0.317662 21.2675 0.104381 21.4016 0.0283846 21.6175C-0.0476114 21.8335 0.032955 22.0744 0.222681 22.1982C3.03137 24.0312 6.27899 25 9.61432 25C16.1711 25 20.2729 21.8529 22.5592 19.2128C25.4102 15.9208 27.0453 11.5635 27.0453 7.25821C27.0453 7.07834 27.0426 6.89674 27.0371 6.71567C28.1619 5.85312 29.1303 4.8092 29.9183 3.60939C30.038 3.4272 30.0251 3.18632 29.8864 3.01861C29.7481 2.85061 29.5172 2.79634 29.3202 2.8852Z" fill="#2166CD" fill-opacity="0.84"/>
</svg>
